PathFileType	4	(X/Y/Z)	C:\Users\Biomechanik\SynologyDrive\AlexP\Athlete_03\Athlete_3_22_07_06\sq_70_EMG\marker_experimental.trc																																																																																																																																																																												
DataRate	CameraRate	NumFrames	NumMarkers	Units	OrigDataRate	OrigDataStartFrame	OrigNumFrames																																																																																																																																																																								
200	200	4	58	mm	200	768	1537																																																																																																																																																																								
Frame#	Time	BL			BR			GLAB			RFHD			LFHD			C7			T6			SPINMOL			SPINM2			SPINM3			T12			BELTOL			BELT2			BELT3			SACROL			SACR2			SACR3			LTHOL			LTH2			LTH3			LSHAOL			LSHA2			LSHA3			LHEE			LTOE			LM5			RTHOL			RTH2			RTH3			RSHAOL			RSHA2			RSHA3			RHEE			RTOE			RM5			STRN			XIPH			LACR			LUAOL			LUA2			LUA3			LLAOL			LLA2			LLA3			LWRU			RACR			RUAOL			RUA3			RLAOL			RLA2			RLA3			RWRU			USERMO0			USERMO1			USERMO2			USERMO3			USERMO4			USERMO5		
		X1	Y1	Z1	X2	Y2	Z2	X3	Y3	Z3	X4	Y4	Z4	X5	Y5	Z5	X6	Y6	Z6	X7	Y7	Z7	X8	Y8	Z8	X9	Y9	Z9	X10	Y10	Z10	X11	Y11	Z11	X12	Y12	Z12	X13	Y13	Z13	X14	Y14	Z14	X15	Y15	Z15	X16	Y16	Z16	X17	Y17	Z17	X18	Y18	Z18	X19	Y19	Z19	X20	Y20	Z20	X21	Y21	Z21	X22	Y22	Z22	X23	Y23	Z23	X24	Y24	Z24	X25	Y25	Z25	X26	Y26	Z26	X27	Y27	Z27	X28	Y28	Z28	X29	Y29	Z29	X30	Y30	Z30	X31	Y31	Z31	X32	Y32	Z32	X33	Y33	Z33	X34	Y34	Z34	X35	Y35	Z35	X36	Y36	Z36	X37	Y37	Z37	X38	Y38	Z38	X39	Y39	Z39	X40	Y40	Z40	X41	Y41	Z41	X42	Y42	Z42	X43	Y43	Z43	X44	Y44	Z44	X45	Y45	Z45	X46	Y46	Z46	X47	Y47	Z47	X48	Y48	Z48	X49	Y49	Z49	X50	Y50	Z50	X51	Y51	Z51	X52	Y52	Z52	X53	Y53	Z53	X54	Y54	Z54	X55	Y55	Z55	X56	Y56	Z56	X57	Y57	Z57	X58	Y58	Z58
																																																																																																																																																																															
769	3.84	92.51802063	1177.88623	-2258.00708	232.6950378	1215.343506	-40.45511627	485.3653259	1392.485229	-1142.236694	422.4020691	1401.266602	-1067.532349	422.932251	1401.230713	-1221.161011	258.1249084	1297.80481	-1134.015869	112.8934555	1173.325073	-1141.431763	90.02916718	1151.151123	-1146.675903	52.75968933	1101.412964	-1096.270508	58.55437469	1097.808228	-1145.841187	40.1039772	1051.777344	-1145.87915	2.653665304	1034.37085	-1139.665039	-23.34988213	978.6932373	-1088.724365	-29.78436661	981.2925415	-1138.418335	-60.08530807	902.2941284	-1169.833984	-50.44452286	910.68927	-1120.39563	-86.25244141	855.8626709	-1130.672119	65.81369019	700.3377075	-1421.260254	49.72250366	622.1046143	-1428.588013	89.9701004	648.034668	-1444.524902	125.177475	326.6832581	-1548.801392	85.840065	258.3806458	-1543.500122	132.7658844	265.8223877	-1558.44873	70.63379669	37.96804428	-1497.924805	270.907135	50.28893661	-1554.946289	205.2947235	22.0652523	-1645.625244	71.35019684	667.5517578	-869.4518433	132.809021	636.868042	-828.8131104	91.32925415	613.7405396	-845.1334229	101.6098404	321.7288208	-757.861084	135.4262085	253.1917725	-736.8670044	91.5799942	260.8034973	-760.0021362	52.92599487	36.584198	-820.9211426	246.8437958	46.19271088	-746.864563	178.4216309	36.57276535	-661.239563	349.4227905	1150.24707	-1154.622803	318.1122131	993.4827271	-1149.645996	216.2502441	1237.04834	-1334.721558	95.68703461	1135.456665	-1365.120605	62.47898102	1090.490845	-1328.946167	67.97645569	1086.439331	-1379.048828	53.0435791	1053.96814	-1454.826294	94.21077728	1075.335693	-1500.706787	88.20658112	1107.068848	-1462.256958	129.0175934	1156.41272	-1514.268311	250.7213898	1235.884644	-956.9769897	134.961319	1125.327271	-908.5637817	81.93990326	1096.488525	-900.2921753	94.08493042	1089.925659	-825.2666016	136.7080688	1137.816895	-833.5255127	132.5036316	1120.609863	-785.2802124	163.8457489	1163.663452	-766.8606567	0.121242002	0.040963601	-0.257694989	0.031407401	0.038175602	-0.030064	0.029780401	0.022410501	-0.0596103	0.019267	0.203095004	-0.820007026	0.365781993	2.880530119	-0.373798996	2.921629906	0	0
770	3.845	92.42761993	1175.177124	-2257.935791	232.8920288	1212.809326	-40.41143036	485.71875	1389.833496	-1142.091797	422.736969	1398.640747	-1067.405884	423.3148193	1398.596558	-1221.042603	258.4126282	1295.292969	-1133.922607	113.0501175	1171.129883	-1141.312622	90.1569519	1149.091309	-1146.545776	52.77969742	1099.446411	-1096.129517	58.53581619	1095.829224	-1145.702393	39.98499298	1049.924194	-1145.740234	2.444365025	1032.737061	-1139.534424	-23.77667809	977.1640625	-1088.591309	-30.20860672	979.7903442	-1138.284302	-60.83594894	900.9205322	-1169.753052	-51.18900299	909.2868042	-1120.298462	-87.10140228	854.5325928	-1130.597412	65.3081131	699.4591675	-1421.496582	49.60108185	621.1760254	-1429.177124	89.72823334	647.3735962	-1444.971436	125.777771	326.6009521	-1549.569214	86.2713623	258.4169312	-1544.087646	133.2322388	265.6987	-1559.023926	70.59818268	37.98693466	-1497.977173	270.8926697	50.30466461	-1554.975952	205.2909088	22.05071831	-1645.640259	70.87033844	666.6122437	-868.9025269	132.5404205	636.5091553	-828.1468506	91.20542908	613.0391846	-844.3482056	102.1392593	321.6440125	-757.0769043	135.8004608	252.9781494	-736.2907715	91.96468353	260.7548218	-759.399353	52.90694809	36.5993042	-820.8962402	246.8276367	46.20729446	-746.8362427	178.3905182	36.54855347	-661.2086792	349.4969788	1147.653198	-1154.533569	317.8717041	990.864624	-1149.547485	216.4425354	1234.536011	-1334.672607	95.85774231	1133.029297	-1365.102051	62.57262421	1088.130127	-1328.918457	68.12143707	1084.047852	-1378.998901	53.14691925	1051.531616	-1454.719482	94.3068924	1072.862183	-1500.616699	88.33116913	1104.608032	-1462.171143	129.1244202	1153.913452	-1514.197754	250.961441	1233.376465	-956.897583	135.2030487	1122.871704	-908.4140625	82.1346283	1094.111084	-900.1433716	94.30211639	1087.471191	-825.121521	136.9226837	1135.355957	-833.4060059	132.7458649	1118.156006	-785.1687622	164.0716858	1161.210815	-766.7982788	0.121675	0.041665699	-0.258397996	0.031596899	0.0373707	-0.031131299	0.0291747	0.020966601	-0.059569601	0.018571099	0.206697002	-0.826857984	0.369778007	2.879309893	-0.374157012	2.921659946	0	0
771	3.85	92.34519196	1172.472168	-2257.862549	233.0951538	1210.282104	-40.36644745	486.0780945	1387.168091	-1141.951416	423.076416	1396.000244	-1067.28479	423.7037659	1395.952637	-1220.929199	258.7005615	1292.77356	-1133.835571	113.2067108	1168.922852	-1141.185669	90.28644562	1147.017334	-1146.406128	52.80514526	1097.468262	-1095.973877	58.51675797	1093.836914	-1145.549316	39.87605286	1048.058228	-1145.582642	2.241242647	1031.09375	-1139.380005	-24.19103622	975.6254272	-1088.432129	-30.62611389	978.2796631	-1138.123535	-61.58694839	899.5526733	-1169.642456	-51.91749191	907.8894653	-1120.170166	-87.94493103	853.2138062	-1130.483521	64.76568604	698.5811157	-1421.717773	49.44346619	620.2502441	-1429.742065	89.44604492	646.713562	-1445.400391	126.3334732	326.5185242	-1550.315186	86.66805267	258.4479065	-1544.656128	133.6609192	265.5769653	-1559.58374	70.55764771	38.00374222	-1498.02832	270.8774414	50.32071686	-1555.00415	205.287262	22.03788948	-1645.654175	70.41520691	665.6809082	-868.3494263	132.2931519	636.1473389	-827.4909668	91.09658051	612.3453979	-843.562439	102.6635056	321.5585938	-756.2957764	136.1707001	252.7660217	-735.7189941	92.34365845	260.7060547	-758.7969971	52.8856163	36.61362076	-820.8696899	246.8118134	46.22323608	-746.8075562	178.3608246	36.5232811	-661.1781616	349.5702515	1145.05127	-1154.453003	317.6329651	988.2381592	-1149.459839	216.630661	1232.006958	-1334.627808	96.01026154	1130.598999	-1365.078613	62.6494751	1085.768066	-1328.884033	68.24377441	1081.655029	-1378.942627	53.22356796	1049.098511	-1454.610474	94.38130188	1070.386597	-1500.524536	88.43615723	1102.146118	-1462.084473	129.2237091	1151.407227	-1514.126465	251.2088928	1230.859985	-956.819458	135.4642487	1120.398071	-908.2596436	82.35083771	1091.708984	-899.9869995	94.53961182	1084.997437	-824.9703979	137.1520538	1132.880371	-833.2808838	133.0033722	1115.689819	-785.052002	164.3079681	1158.750122	-766.7320557	0.122023001	0.0421215	-0.258336991	0.0319601	0.036504101	-0.032318901	0.0286831	0.019675599	-0.059946802	0.017982399	0.210712001	-0.832944989	0.374134004	2.878149986	-0.374660999	2.921730042	0	0
772	3.855	92.27264404	1169.772583	-2257.787354	233.3061981	1207.762817	-40.32027435	486.4423523	1384.488403	-1141.817139	423.4189148	1393.344849	-1067.171021	424.0985107	1393.298584	-1220.822632	258.9864197	1290.247803	-1133.756348	113.3605728	1166.704346	-1141.053467	90.41525269	1144.928589	-1146.26001	52.83285141	1095.478271	-1095.806519	58.49528885	1091.830322	-1145.384766	39.77565765	1046.17749	-1145.408691	2.042966366	1029.439087	-1139.204102	-24.59467697	974.0757446	-1088.24939	-31.03767014	976.7581787	-1137.938477	-62.33731079	898.1849976	-1169.500366	-52.6306076	906.4928589	-1120.010376	-88.78248596	851.9009399	-1130.329224	64.18525696	697.7046509	-1421.924561	49.2473793	619.3286743	-1430.284912	89.12153625	646.0559692	-1445.814087	126.8407288	326.4370117	-1551.041016	87.02672577	258.4744568	-1545.205811	134.0475922	265.4583435	-1560.130737	70.51213837	38.01825714	-1498.078979	270.8605652	50.33778763	-1555.032104	205.2833405	22.02582741	-1645.667358	69.98638916	664.7548218	-867.7922974	132.0696869	635.7806396	-826.8450317	91.0054245	611.6565552	-842.7759399	103.1875763	321.472168	-755.5166016	136.5411224	252.5541077	-735.1512451	92.72117615	260.6567688	-758.194458	52.86243057	36.627285	-820.8418579	246.7972412	46.24059677	-746.7792358	178.3329468	36.49753571	-661.1484985	349.6403198	1142.441284	-1154.381958	317.394104	985.6035767	-1149.382935	216.8133392	1229.463257	-1334.58728	96.14220428	1128.166626	-1365.051025	62.70754242	1083.405151	-1328.843628	68.34117889	1079.261597	-1378.881226	53.27207184	1046.670288	-1454.501221	94.43282318	1067.910889	-1500.431396	88.52022552	1099.68457	-1461.997681	129.3145752	1148.895874	-1514.05481	251.461731	1228.335571	-956.7429199	135.7385712	1117.911011	-908.1027832	82.58120728	1089.288696	-899.8254395	94.79077148	1082.51062	-824.8150024	137.3912811	1130.39502	-833.1519165	133.2713013	1113.215332	-784.9314575	164.5518188	1156.283691	-766.6626587	0.122345001	0.042323299	-0.25790301	0.032464899	0.035622701	-0.033536401	0.028291	0.018554101	-0.060796801	0.0175109	0.214922994	-0.837947011	0.378688008	2.877029896	-0.37520501	2.921809912	0	0
